<svg width="20" height="17" viewBox="0 0 20 17" fill="none" xmlns="http://www.w3.org/2000/svg">
<path d="M18 0.888672H2C0.897 0.888672 0 1.78567 0 2.88867V14.8887C0 15.9917 0.897 16.8887 2 16.8887H18C19.103 16.8887 20 15.9917 20 14.8887V2.88867C20 1.78567 19.103 0.888672 18 0.888672ZM18 2.88867V3.39967L10 9.62267L2 3.40067V2.88867H18ZM2 14.8887V5.93267L9.386 11.6777C9.56111 11.8152 9.77733 11.89 10 11.89C10.2227 11.89 10.4389 11.8152 10.614 11.6777L18 5.93267L18.002 14.8887H2Z" fill="#EE243D"/>
</svg>
