<svg width="18" height="19" viewBox="0 0 18 19" fill="none" xmlns="http://www.w3.org/2000/svg">
<path fill-rule="evenodd" clip-rule="evenodd" d="M1.5 0.131348C0.67157 0.131348 0 0.802918 0 1.63135V16.6313C0 17.4597 0.67157 18.1313 1.5 18.1313H16.5C17.3284 18.1313 18 17.4597 18 16.6313V1.63135C18 0.802918 17.3284 0.131348 16.5 0.131348H1.5ZM5.52076 4.13407C5.52639 5.09032 4.81061 5.67954 3.96123 5.67532C3.16107 5.6711 2.46357 5.03407 2.46779 4.13548C2.47201 3.29032 3.13998 2.6111 4.00764 2.63079C4.88795 2.65048 5.52639 3.29595 5.52076 4.13407ZM9.2797 6.89311H6.75971H6.7583V15.4529H9.4217V15.2532C9.4217 14.8733 9.4214 14.4933 9.4211 14.1132C9.4203 13.0994 9.4194 12.0845 9.4246 11.071C9.426 10.8249 9.4372 10.569 9.5005 10.3341C9.7381 9.45665 10.5271 8.88995 11.4074 9.02925C11.9727 9.11775 12.3467 9.44545 12.5042 9.97845C12.6013 10.3116 12.6449 10.6702 12.6491 11.0176C12.6605 12.0652 12.6589 13.1128 12.6573 14.1605C12.6567 14.5303 12.6561 14.9003 12.6561 15.2701V15.4515H15.328V15.2462C15.328 14.7942 15.3278 14.3423 15.3275 13.8904C15.327 12.7609 15.3264 11.6314 15.3294 10.5015C15.3308 9.99105 15.276 9.48765 15.1508 8.99405C14.9638 8.25995 14.5771 7.65245 13.9485 7.21375C13.5027 6.90154 13.0133 6.70045 12.4663 6.67795C12.404 6.67536 12.3412 6.67197 12.2781 6.66856C11.9984 6.65344 11.7141 6.63808 11.4467 6.69201C10.6817 6.84529 10.0096 7.19545 9.5019 7.81275C9.4429 7.88355 9.3852 7.95545 9.2991 8.06275L9.2797 8.08705V6.89311ZM2.68164 15.4557H5.33242V6.89868H2.68164V15.4557Z" fill="#F5F5F5"/>
</svg>
