<svg width="16" height="21" viewBox="0 0 16 21" fill="none" xmlns="http://www.w3.org/2000/svg">
<path d="M8.00006 12.8887C10.2061 12.8887 12.0001 11.0947 12.0001 8.88867C12.0001 6.68267 10.2061 4.88867 8.00006 4.88867C5.79406 4.88867 4.00006 6.68267 4.00006 8.88867C4.00006 11.0947 5.79406 12.8887 8.00006 12.8887ZM8.00006 6.88867C9.10306 6.88867 10.0001 7.78567 10.0001 8.88867C10.0001 9.99167 9.10306 10.8887 8.00006 10.8887C6.89706 10.8887 6.00006 9.99167 6.00006 8.88867C6.00006 7.78567 6.89706 6.88867 8.00006 6.88867ZM7.42009 20.7027C7.58934 20.8235 7.79211 20.8885 8.00009 20.8885C8.20806 20.8885 8.41084 20.8235 8.58009 20.7027C8.88409 20.4877 16.0291 15.3287 16.0001 8.88867C16.0001 4.47767 12.4111 0.888672 8.00009 0.888672C3.58909 0.888672 8.80377e-05 4.47767 8.80377e-05 8.88367C-0.028912 15.3287 7.11609 20.4877 7.42009 20.7027ZM8.00009 2.88867C11.3091 2.88867 14.0001 5.57967 14.0001 8.89367C14.0211 13.3317 9.61209 17.3167 8.00009 18.6237C6.38909 17.3157 1.97909 13.3297 2.00009 8.88867C2.00009 5.57967 4.69109 2.88867 8.00009 2.88867Z" fill="#EE243D"/>
<path d="M8.00006 12.8887C10.2061 12.8887 12.0001 11.0947 12.0001 8.88867C12.0001 6.68267 10.2061 4.88867 8.00006 4.88867C5.79406 4.88867 4.00006 6.68267 4.00006 8.88867C4.00006 11.0947 5.79406 12.8887 8.00006 12.8887ZM8.00006 6.88867C9.10306 6.88867 10.0001 7.78567 10.0001 8.88867C10.0001 9.99167 9.10306 10.8887 8.00006 10.8887C6.89706 10.8887 6.00006 9.99167 6.00006 8.88867C6.00006 7.78567 6.89706 6.88867 8.00006 6.88867ZM7.42009 20.7027C7.58934 20.8235 7.79211 20.8885 8.00009 20.8885C8.20806 20.8885 8.41084 20.8235 8.58009 20.7027C8.88409 20.4877 16.0291 15.3287 16.0001 8.88867C16.0001 4.47767 12.4111 0.888672 8.00009 0.888672C3.58909 0.888672 8.80377e-05 4.47767 8.80377e-05 8.88367C-0.028912 15.3287 7.11609 20.4877 7.42009 20.7027ZM8.00009 2.88867C11.3091 2.88867 14.0001 5.57967 14.0001 8.89367C14.0211 13.3317 9.61209 17.3167 8.00009 18.6237C6.38909 17.3157 1.97909 13.3297 2.00009 8.88867C2.00009 5.57967 4.69109 2.88867 8.00009 2.88867Z" fill="#EE243D"/>
</svg>
