<svg width="24" height="24" viewBox="0 0 24 24" fill="none" xmlns="http://www.w3.org/2000/svg">
<path d="M20.75 20.75H3.25V3.25H20.75M20.75 0.75H3.25C2.58696 0.75 1.95107 1.01339 1.48223 1.48223C1.01339 1.95107 0.75 2.58696 0.75 3.25V20.75C0.75 21.413 1.01339 22.0489 1.48223 22.5178C1.95107 22.9866 2.58696 23.25 3.25 23.25H20.75C21.413 23.25 22.0489 22.9866 22.5178 22.5178C22.9866 22.0489 23.25 21.413 23.25 20.75V3.25C23.25 2.58696 22.9866 1.95107 22.5178 1.48223C22.0489 1.01339 21.413 0.75 20.75 0.75ZM17.625 17.3125C17.625 15.4375 13.875 14.5 12 14.5C10.125 14.5 6.375 15.4375 6.375 17.3125V18.25H17.625M12 12.3125C12.7459 12.3125 13.4613 12.0162 13.9887 11.4887C14.5162 10.9613 14.8125 10.2459 14.8125 9.5C14.8125 8.75408 14.5162 8.03871 13.9887 7.51126C13.4613 6.98382 12.7459 6.6875 12 6.6875C11.2541 6.6875 10.5387 6.98382 10.0113 7.51126C9.48382 8.03871 9.1875 8.75408 9.1875 9.5C9.1875 10.2459 9.48382 10.9613 10.0113 11.4887C10.5387 12.0162 11.2541 12.3125 12 12.3125Z" fill="#EE243D"/>
</svg>
