<svg width="19" height="20" viewBox="0 0 19 20" fill="none" xmlns="http://www.w3.org/2000/svg">
<path d="M14.7071 11.1819C14.6143 11.0889 14.5041 11.0152 14.3828 10.9649C14.2615 10.9146 14.1314 10.8887 14.0001 10.8887C13.8688 10.8887 13.7387 10.9146 13.6174 10.9649C13.4961 11.0152 13.3859 11.0889 13.2931 11.1819L11.6991 12.7759C10.9601 12.5559 9.58109 12.0559 8.70709 11.1819C7.83309 10.3079 7.33309 8.92887 7.11309 8.18987L8.70709 6.59587C8.80004 6.50309 8.87377 6.39288 8.92408 6.27157C8.97439 6.15025 9.00029 6.02021 9.00029 5.88887C9.00029 5.75754 8.97439 5.62749 8.92408 5.50618C8.87377 5.38486 8.80004 5.27466 8.70709 5.18187L4.70709 1.18187C4.6143 1.08893 4.5041 1.01519 4.38278 0.964879C4.26147 0.914568 4.13142 0.888672 4.00009 0.888672C3.86876 0.888672 3.73871 0.914568 3.6174 0.964879C3.49608 1.01519 3.38588 1.08893 3.29309 1.18187L0.58109 3.89387C0.20109 4.27387 -0.0129104 4.79587 -0.00491041 5.32887C0.0180896 6.75287 0.39509 11.6989 4.29309 15.5969C8.19109 19.4949 13.1371 19.8709 14.5621 19.8949H14.5901C15.1181 19.8949 15.6171 19.6869 15.9951 19.3089L18.7071 16.5969C18.8 16.5041 18.8738 16.3939 18.9241 16.2726C18.9744 16.1513 19.0003 16.0212 19.0003 15.8899C19.0003 15.7585 18.9744 15.6285 18.9241 15.5072C18.8738 15.3859 18.8 15.2757 18.7071 15.1829L14.7071 11.1819ZM14.5801 17.8939C13.3321 17.8729 9.06209 17.5379 5.70709 14.1819C2.34109 10.8159 2.01509 6.53087 1.99509 5.30787L4.00009 3.30287L6.58609 5.88887L5.29309 7.18187C5.17555 7.29932 5.08913 7.44421 5.04164 7.60344C4.99415 7.76267 4.98709 7.93123 5.02109 8.09387C5.04509 8.20887 5.63209 10.9359 7.29209 12.5959C8.95209 14.2559 11.6791 14.8429 11.7941 14.8669C11.9566 14.9018 12.1254 14.8953 12.2847 14.848C12.4441 14.8006 12.589 14.7139 12.7061 14.5959L14.0001 13.3029L16.5861 15.8889L14.5801 17.8939Z" fill="#EE243D"/>
</svg>
