<svg width="21" height="15" viewBox="0 0 21 15" fill="none" xmlns="http://www.w3.org/2000/svg">
<path d="M20.593 3.09168C20.4791 2.66908 20.2565 2.28368 19.9474 1.97385C19.6382 1.66401 19.2533 1.44054 18.831 1.32568C17.265 0.895679 11 0.888679 11 0.888679C11 0.888679 4.73599 0.881679 3.16899 1.29268C2.74692 1.41283 2.36282 1.63946 2.05356 1.95081C1.7443 2.26217 1.52028 2.6478 1.40299 3.07068C0.989994 4.63668 0.985994 7.88468 0.985994 7.88468C0.985994 7.88468 0.981994 11.1487 1.39199 12.6987C1.62199 13.5557 2.29699 14.2327 3.15499 14.4637C4.73699 14.8937 10.985 14.9007 10.985 14.9007C10.985 14.9007 17.25 14.9077 18.816 14.4977C19.2385 14.383 19.6237 14.1601 19.9336 13.8509C20.2436 13.5417 20.4674 13.1569 20.583 12.7347C20.997 11.1697 21 7.92268 21 7.92268C21 7.92268 21.02 4.65768 20.593 3.09168ZM8.99599 10.8937L9.00099 4.89368L14.208 7.89868L8.99599 10.8937Z" fill="#F5F5F5"/>
</svg>
