<?xml version="1.0" encoding="UTF-8"?>
<svg id="Layer_2" data-name="Layer 2" xmlns="http://www.w3.org/2000/svg" viewBox="0 0 1230.35 998.46">
  <defs>
    <style>
      .cls-1 {
        fill: #ec243e;
      }

      .cls-2 {
        fill: #0a1421;
      }
    </style>
  </defs>
  <g id="Layer_1-2" data-name="Layer 1">
    <g>
      <path class="cls-2" d="M732.96,814.24c30.2,5.42,52.01,6.64,82.58,6.69,15.46.02,31.21.65,46.6-1,53.36-5.73,107.86-28.75,151.66-59.19,18.8-13.06,39.1-27.65,55.5-43.52,7.53-7.28,24.81-28.75,33.01-32.15,14.48,6.58,57.09,58.57,70.46,72.62,9.1,9.56,52.12,48.82,54.98,57.32.05.16.08.33.13.49-2.06,12.1-92.63,82.73-106.79,92.75-6.94,5.01-14.01,9.82-21.22,14.44-7.2,4.62-14.53,9.04-21.97,13.25-7.45,4.21-15.01,8.22-22.68,12.02-7.67,3.8-15.43,7.38-23.3,10.75-7.87,3.37-15.82,6.52-23.86,9.45-8.04,2.93-16.15,5.64-24.34,8.12-8.19,2.48-16.44,4.74-24.76,6.76-8.31,2.03-16.68,3.83-25.09,5.39-13.73,2.57-54.11,6.16-63.35,10.02h-112.3c-12.4-5.09-47.27-6.09-63.08-9.11-29.72-5.69-57.72-14.72-86.46-23.88,20.17-38.12,49.91-69.94,77.88-102.33,14.19-16.44,29.13-35.63,46.39-48.89Z"/>
      <path class="cls-2" d="M767.94,0h90.44c7.79,3.44,56.26,7.26,70.6,10.23,82.59,17.11,164.45,55.21,229.9,108.43,13.21,10.74,70.02,57.67,71.47,71.8-.1.5-.14.82-.29,1.28-1.19,3.54-60.54,61.28-68.53,68.65-9.13,8.42-18.97,16.03-28.1,24.45-9.66,8.9-20.45,23.32-32.32,28.85-1.73-4.88-10.09-11.33-13.87-15.03-26.49-26-53.36-49.27-85.65-67.91-44.3-25.58-93.24-46.75-144.58-52.13-15.97-1.68-32.04-1.42-48.07-1.38-29.5.08-57.18,2.27-85.8,10.01-5.04,1.4-10.05,2.91-15.02,4.55-4.97,1.64-9.9,3.4-14.78,5.27-4.89,1.88-9.72,3.87-14.51,5.98-4.79,2.11-9.53,4.34-14.21,6.68-4.68,2.34-9.3,4.8-13.87,7.36-4.56,2.57-9.06,5.24-13.49,8.02-4.43,2.78-8.8,5.67-13.09,8.67-4.29,2.99-8.51,6.09-12.65,9.29-4.14,3.2-8.2,6.5-12.19,9.89-3.98,3.4-7.88,6.89-11.7,10.47-3.81,3.58-7.54,7.26-11.17,11.02-3.64,3.76-7.18,7.62-10.63,11.55-3.45,3.94-6.8,7.95-10.05,12.05-3.26,4.1-6.41,8.27-9.46,12.53-3.05,4.25-6,8.57-8.84,12.97-2.84,4.39-5.58,8.85-8.21,13.38-39.94,69.97-49.09,154.8-33.9,233.07,3.25,16.74,8.69,33.49,13.21,49.94-27.09,40.23-101.57,107.35-143.22,133.64-13.23-23.73-23.64-48.24-32.58-73.87-19.44-55.77-26.55-111.9-27.14-170.7-.24-23.85-.53-48.21,1.55-71.97,4.94-56.51,22.2-116.01,46.94-166.95,58.68-120.79,178.25-212.56,306.05-249.27,20.37-5.85,41.1-11.48,62.09-14.64,14.65-2.21,31.27-1.12,45.28-6.04l.39-.14Z"/>
      <path class="cls-1" d="M0,26.53c51.77-.39,103.54-.49,155.31-.31,70.91.02,141.52-.64,212.02,8.3,28.67,3.64,56.73,9.29,84.94,15.43-42.6,28.82-80.37,73.69-107.54,116.98-3.8,6.05-19.38,36.34-24.28,37.41-7.39,1.62-37.39-2.43-47.04-2.84-20.21-.86-40.5-.73-60.73-.62-10.12.06-20.7.76-30.78-.07l.02,407.2v132.3c0,21.85,1.1,44.31-.11,66.09,75.78,1.01,185.23,5.71,255.4-24.21,20.74-8.84,39.57-22.17,55.66-37.89,60.79-59.39,80.43-145.75,81.21-227.9.45-46.87-6.18-90.75-19.83-135.53,15.35-49.52,59.48-88.68,104.06-112.13,12.39-6.52,25.17-11.52,38.15-16.67,67.55,121.25,79.07,288.69,41.35,421.04-30.55,107.21-96.3,203.11-194.97,257.91-10.73,6.02-21.77,11.4-33.12,16.15-11.35,4.75-22.94,8.83-34.75,12.25-91.58,25.67-227.54,21.66-324.37,21.69H54.19c-17.95,0-36.29.71-54.19-.46V26.53Z"/>
    </g>
  </g>
</svg>