<?xml version="1.0" encoding="UTF-8"?>
<svg id="Layer_2" data-name="Layer 2" xmlns="http://www.w3.org/2000/svg" viewBox="0 0 2346.9 231.67">
  <defs>
    <style>
      .cls-1 {
        fill: #000F20;
      }

      .cls-2 {
        fill: #EE243D;
      }
    </style>
  </defs>
  <g id="Layer_1-2" data-name="Layer 1">
    <g>
      <g>
        <path class="cls-2" d="M0,227.64V3.69h76.55c69.5,0,114.83,48.68,114.83,112.14s-45.33,111.81-114.83,111.81H0ZM27.87,202.8h48.68c54.39,0,85.95-38.95,85.95-86.96S131.95,28.54,76.55,28.54H27.87v174.26Z"/>
        <path class="cls-2" d="M364.63,227.64l-57.08-88.97h-44.66v88.97h-27.87V3.69h89.98c40.96,0,70.17,26.19,70.17,67.49s-27.53,62.45-58.09,65.14l60.44,91.33h-32.9ZM321.65,28.54h-58.76v85.62h58.76c26.52,0,44.66-17.79,44.66-42.98s-18.13-42.64-44.66-42.64Z"/>
        <path class="cls-2" d="M599.99,227.64l-19.81-49.69h-113.48l-19.81,49.69h-30.89L505.98,3.69h34.58l90.32,223.95h-30.89ZM523.44,28.54l-48.68,124.57h97.03l-48.35-124.57Z"/>
        <path class="cls-2" d="M795.39,227.64l-84.95-100.73-22.5,25.52v75.21h-27.87V3.69h27.87v115.84L787,3.69h34.92l-93.34,106.43,101.4,117.51h-34.58Z"/>
        <path class="cls-2" d="M861.87,227.64V3.69h146.72v24.85h-118.86v72.19h116.51v24.85h-116.51v77.22h118.86v24.85h-146.72Z"/>
        <path class="cls-1" d="M1476.96,115.84c0-68.83,50.7-115.84,114.16-115.84,40.63,0,68.16,19.14,85.95,44.32l-23.5,13.09c-12.76-18.8-35.93-32.57-62.45-32.57-48.01,0-85.28,37.6-85.28,90.99s37.27,90.99,85.28,90.99c26.52,0,49.69-13.43,62.45-32.57l23.84,13.09c-18.8,25.52-45.66,44.32-86.29,44.32-63.46,0-114.16-47.01-114.16-115.84Z"/>
        <path class="cls-1" d="M1872.82,227.64l-19.81-49.69h-113.49l-19.81,49.69h-30.89L1778.81,3.69h34.58l90.32,223.95h-30.89ZM1796.27,28.54l-48.68,124.57h97.03l-48.35-124.57Z"/>
        <path class="cls-1" d="M1931.24,174.93c14.77,16.45,38.95,31.9,70.51,31.9,39.96,0,52.71-21.49,52.71-38.61,0-26.86-27.2-34.25-56.74-42.3-35.93-9.4-75.88-19.47-75.88-63.46,0-36.93,32.9-62.11,76.89-62.11,34.25,0,60.77,11.42,79.57,31.23l-16.79,20.48c-16.79-18.47-40.29-26.86-64.8-26.86-26.86,0-46,14.44-46,35.59,0,22.5,25.85,29.21,54.39,36.93,36.6,9.74,78.23,21.15,78.23,68.16,0,32.57-22.16,65.81-82.6,65.81-38.95,0-67.49-14.77-85.95-35.59l16.45-21.15Z"/>
        <path class="cls-1" d="M2124.97,227.64V3.69h146.72v24.85h-118.86v72.19h116.51v24.85h-116.51v77.22h118.86v24.85h-146.72Z"/>
        <path class="cls-2" d="M2328.43,194.07c10.07,0,18.47,8.39,18.47,18.47s-8.39,18.47-18.47,18.47-18.47-8.39-18.47-18.47,8.39-18.47,18.47-18.47Z"/>
      </g>
      <path class="cls-1" d="M1259.31,118.52c12.42,11.08,33.24,35.25,47.67,56.4,14.77,21.82,24.51,29.88,39.62,29.88,3.36,0,7.05-.34,9.74-1.01,1.34-.33,1.68,0,1.68,1.68v19.81c0,2.01,0,2.69-1.68,3.36-3.69,1.68-8.39,2.35-15.44,2.35-19.81,0-33.57-5.71-56.74-40.96-24.84-37.94-52.71-65.81-62.78-70.51-14.44.34-39.95,13.43-39.95,42.3,0,22.49,17.12,42.97,48.68,42.97,14.77,0,25.52-2.69,33.91-6.71,1.34-.34,1.68.34,1.68,1.68v21.82c0,1.68-.67,2.01-2.01,2.69-6.38,3.36-18.13,6.71-37.6,6.71-41.63,0-72.86-25.18-72.86-66.81,0-34.25,24.17-55.73,51.03-64.13-10.07-9.74-22.83-24.51-22.83-45.32,0-33.57,26.19-52.71,61.78-52.71,16.12,0,28.54,2.35,36.93,7.05,1.01.67,1.34,2.01,1.34,3.36v21.49c0,1.68-1.01,2.01-2.35,1.34-7.05-4.36-19.47-8.39-35.25-8.39-21.49,0-34.92,9.06-34.92,27.87,0,14.77,13.09,28.2,28.2,38.95h108.11c1.68,0,2.01.67,1.68,2.01l-3.69,20.82c-.34,1.68-1.01,2.01-2.35,2.01h-81.58Z"/>
    </g>
  </g>
</svg>